<svg width="19" height="17" viewBox="0 0 19 17" fill="none" xmlns="http://www.w3.org/2000/svg">
<g id="Group 68">
<path id="Vector" d="M16.7391 4.54153L14.2052 14.7144C14.1173 15.0823 13.9075 15.4096 13.6098 15.643C13.3122 15.8765 12.9444 16.0023 12.5661 16.0001H2.68651C1.55118 16.0001 0.739155 14.8873 1.0775 13.7971L4.24289 3.63176C4.34866 3.28702 4.56182 2.98511 4.85127 2.77005C5.14072 2.55499 5.49131 2.43805 5.8519 2.43628H15.1C15.8142 2.43628 16.4082 2.87237 16.6563 3.47387C16.7992 3.79717 16.8293 4.16559 16.7391 4.54153Z" stroke="white" stroke-miterlimit="10"/>
<path id="Vector_2" d="M12.2805 15.9999H15.8745C16.8444 15.9999 17.6038 15.1804 17.5361 14.2104L16.7918 3.96991M7.52867 4.25562L8.31062 1.00752M12.5662 4.26314L13.273 1M6.03996 8.48115H12.055M5.28809 11.4887H11.3031" stroke="white" stroke-miterlimit="10" stroke-linecap="round" stroke-linejoin="round"/>
</g>
</svg>
