<svg width="18" height="19" viewBox="0 0 18 19" fill="none" xmlns="http://www.w3.org/2000/svg">
<g id="Group 115">
<g id="Group 113">
<path id="Vector" d="M13.565 10.0588C13.565 10.3535 13.4479 10.6361 13.2396 10.8445C13.0312 11.0529 12.7486 11.1699 12.4539 11.1699H2.45388C2.1592 11.1699 1.87658 11.0529 1.66821 10.8445C1.45984 10.6361 1.34277 10.3535 1.34277 10.0588V3.9477C1.34277 3.65301 1.45984 3.3704 1.66821 3.16203C1.87658 2.95365 2.1592 2.83659 2.45388 2.83659H4.67611L5.78722 1.16992H9.12055L10.2317 2.83659H12.4539C12.7486 2.83659 13.0312 2.95365 13.2396 3.16203C13.4479 3.3704 13.565 3.65301 13.565 3.9477V10.0588Z" fill="#010101" stroke="black" stroke-linecap="round" stroke-linejoin="round"/>
<path id="Vector_2" d="M7.45367 8.94835C8.68097 8.94835 9.67589 7.95343 9.67589 6.72613C9.67589 5.49883 8.68097 4.50391 7.45367 4.50391C6.22637 4.50391 5.23145 5.49883 5.23145 6.72613C5.23145 7.95343 6.22637 8.94835 7.45367 8.94835Z" fill="#EFEFEF" stroke="black" stroke-linecap="round" stroke-linejoin="round"/>
</g>
<g id="Group 114">
<path id="Vector_3" d="M10.6758 16.5035V9.28107L17.3426 8.16992V15.3924" stroke="black" stroke-linecap="round" stroke-linejoin="round"/>
<path id="Vector_4" d="M9.00949 18.1699C9.92999 18.1699 10.6762 17.4236 10.6762 16.5031C10.6762 15.5826 9.92999 14.8364 9.00949 14.8364C8.08899 14.8364 7.34277 15.5826 7.34277 16.5031C7.34277 17.4236 8.08899 18.1699 9.00949 18.1699Z" fill="#010101" stroke="#010101" stroke-linecap="round" stroke-linejoin="round"/>
<path id="Vector_5" d="M15.6775 17.059C16.598 17.059 17.3442 16.3128 17.3442 15.3923C17.3442 14.4718 16.598 13.7256 15.6775 13.7256C14.757 13.7256 14.0107 14.4718 14.0107 15.3923C14.0107 16.3128 14.757 17.059 15.6775 17.059Z" fill="#010101" stroke="#010101" stroke-linecap="round" stroke-linejoin="round"/>
</g>
</g>
</svg>
