<svg width="15" height="17" viewBox="0 0 15 17" fill="none" xmlns="http://www.w3.org/2000/svg">
<g id="Group 53">
<path id="Vector" d="M9.25576 13.7923C9.25576 14.2497 8.95583 14.8496 8.57341 15.082L7.51613 15.7644C6.53384 16.3718 5.16912 15.6894 5.16912 14.4747V10.463C5.16912 9.93062 4.86919 9.24827 4.56175 8.87334L1.68236 5.84398C1.29994 5.46156 1 4.7867 1 4.3293V2.58967C1 1.68236 1.68236 1 2.51468 1H12.5176C13.3499 1 14.0323 1.68236 14.0323 2.51468V4.17933C14.0323 4.7867 13.6498 5.54404 13.2749 5.91896" stroke="white" stroke-miterlimit="10" stroke-linecap="round" stroke-linejoin="round"/>
<path id="Vector_2" d="M13.4178 12.33L12.668 11.5801M10.5684 11.88C11.2048 11.88 11.8151 11.6272 12.2651 11.1772C12.7151 10.7273 12.9679 10.1169 12.9679 9.48055C12.9679 8.84416 12.7151 8.23384 12.2651 7.78385C11.8151 7.33386 11.2048 7.08105 10.5684 7.08105C9.93205 7.08105 9.32173 7.33386 8.87174 7.78385C8.42175 8.23384 8.16895 8.84416 8.16895 9.48055C8.16895 10.1169 8.42175 10.7273 8.87174 11.1772C9.32173 11.6272 9.93205 11.88 10.5684 11.88Z" stroke="white" stroke-linecap="round" stroke-linejoin="round"/>
</g>
</svg>
