<svg width="19" height="18" viewBox="0 0 19 18" fill="none" xmlns="http://www.w3.org/2000/svg">
<g id="Group 47">
<path id="Vector" d="M17.5674 7.68474L16.7422 11.2046C16.0348 14.2444 14.637 15.4738 12.0098 15.2212C11.5887 15.1875 11.134 15.1117 10.6456 14.9938L9.23097 14.657C5.71957 13.8234 4.63331 12.0887 5.45853 8.56891L6.28375 5.04067C6.45216 4.32492 6.65426 3.70179 6.90688 3.18813C7.89209 1.15034 9.56779 0.603005 12.3803 1.26823L13.7865 1.59664C17.3148 2.42186 18.3926 4.16492 17.5674 7.68474Z" stroke="white" stroke-linecap="round" stroke-linejoin="round"/>
<path id="Vector_2" d="M12.0091 15.2213C11.487 15.575 10.8302 15.8697 10.0303 16.1307L8.69982 16.5686C5.35684 17.6464 3.59693 16.7454 2.51067 13.4024L1.43283 10.0763C0.354992 6.73331 1.24758 4.96498 4.59056 3.88714L5.92102 3.44927C6.26626 3.3398 6.59467 3.24718 6.90623 3.18823C6.65361 3.70189 6.45152 4.32502 6.2831 5.04077L5.45788 8.56901C4.63266 12.0888 5.71892 13.8235 9.23032 14.6571L10.645 14.9939C11.1334 15.1118 11.5881 15.1876 12.0091 15.2213Z" stroke="white" stroke-linecap="round" stroke-linejoin="round"/>
</g>
</svg>
