<svg width="15" height="14" viewBox="0 0 15 14" fill="none" xmlns="http://www.w3.org/2000/svg">
<g id="Group 6">
<path id="Vector" d="M7.95189 2.89502H3.5223C3.34235 2.89502 3.16932 2.90159 3.00321 2.92132C1.1414 3.07253 0.207031 4.11785 0.207031 6.04414V8.67389C0.207031 11.3036 1.31443 11.823 3.5223 11.823H3.79915C3.95142 11.823 4.15213 11.9216 4.24211 12.0334L5.07266 13.0853C5.43948 13.5521 6.03471 13.5521 6.40153 13.0853L7.23208 12.0334C7.3359 11.9019 7.50201 11.823 7.67504 11.823H7.95189C9.97981 11.823 11.0803 10.9421 11.2395 9.16697C11.2602 9.00919 11.2672 8.84483 11.2672 8.67389V6.04414C11.2672 3.94692 10.1598 2.89502 7.95189 2.89502ZM3.32158 8.15452C2.934 8.15452 2.62946 7.85867 2.62946 7.49708C2.62946 7.13549 2.94092 6.83964 3.32158 6.83964C3.70225 6.83964 4.01371 7.13549 4.01371 7.49708C4.01371 7.85867 3.70225 8.15452 3.32158 8.15452ZM5.73709 8.15452C5.34951 8.15452 5.04497 7.85867 5.04497 7.49708C5.04497 7.13549 5.35643 6.83964 5.73709 6.83964C6.11776 6.83964 6.42922 7.13549 6.42922 7.49708C6.42922 7.85867 6.12468 8.15452 5.73709 8.15452ZM8.15952 8.15452C7.77194 8.15452 7.4674 7.85867 7.4674 7.49708C7.4674 7.13549 7.77886 6.83964 8.15952 6.83964C8.54019 6.83964 8.85165 7.13549 8.85165 7.49708C8.85165 7.85867 8.54019 8.15452 8.15952 8.15452Z" fill="#42A4FF"/>
<path id="Vector_2" d="M14.0371 3.41426V6.04401C14.0371 7.35889 13.608 8.253 12.7498 8.74608C12.5421 8.86442 12.2999 8.70663 12.2999 8.47653L12.3068 6.04401C12.3068 3.41426 10.7219 1.90873 7.95336 1.90873L3.73833 1.9153C3.49609 1.9153 3.32998 1.6852 3.45456 1.48797C3.97366 0.672748 4.91494 0.265137 6.29227 0.265137H10.7219C12.9297 0.265137 14.0371 1.31704 14.0371 3.41426Z" fill="#42A4FF"/>
</g>
</svg>
