<svg width="15" height="14" viewBox="0 0 15 14" fill="none" xmlns="http://www.w3.org/2000/svg">
<g id="Group 6">
<path id="Vector" d="M11.2699 0.831543H2.97275C1.44469 0.831543 0.207031 2.0688 0.207031 3.59105V10.5836C0.207031 12.1059 1.44469 13.3432 2.97275 13.3432H11.2699C12.798 13.3432 14.0357 12.1059 14.0357 10.5836V3.59105C14.0357 2.0688 12.798 0.831543 11.2699 0.831543ZM4.70133 3.73007C5.57945 3.73007 6.29854 4.45296 6.29854 5.33572C6.29854 6.21848 5.57945 6.94138 4.70133 6.94138C3.82322 6.94138 3.10413 6.21848 3.10413 5.33572C3.10413 4.45296 3.82322 3.73007 4.70133 3.73007ZM7.37717 10.3265C7.31494 10.396 7.21814 10.4377 7.12134 10.4377H2.28132C2.18452 10.4377 2.08772 10.396 2.02549 10.3265C1.99384 10.2906 1.96959 10.2488 1.95416 10.2035C1.93873 10.1581 1.93242 10.1101 1.93561 10.0623C1.9934 9.49542 2.24471 8.96613 2.64681 8.56443C3.04892 8.16273 3.577 7.91343 4.14127 7.8589C4.51154 7.82415 4.88421 7.82415 5.25448 7.8589C6.41608 7.97011 7.34951 8.89458 7.46014 10.0623C7.47397 10.1596 7.4394 10.257 7.37717 10.3265ZM11.9614 10.389H10.5785C10.295 10.389 10.0599 10.1527 10.0599 9.8677C10.0599 9.58272 10.295 9.34639 10.5785 9.34639H11.9614C12.2448 9.34639 12.4799 9.58272 12.4799 9.8677C12.4799 10.1527 12.2448 10.389 11.9614 10.389ZM11.9614 7.60866H9.19563C8.91215 7.60866 8.67706 7.37233 8.67706 7.08735C8.67706 6.80236 8.91215 6.56603 9.19563 6.56603H11.9614C12.2448 6.56603 12.4799 6.80236 12.4799 7.08735C12.4799 7.37233 12.2448 7.60866 11.9614 7.60866ZM11.9614 4.82831H8.5042C8.22072 4.82831 7.98563 4.59198 7.98563 4.30699C7.98563 4.022 8.22072 3.78567 8.5042 3.78567H11.9614C12.2448 3.78567 12.4799 4.022 12.4799 4.30699C12.4799 4.59198 12.2448 4.82831 11.9614 4.82831Z" fill="#42A4FF"/>
</g>
</svg>
