<svg width="18" height="18" viewBox="0 0 18 18" fill="none" xmlns="http://www.w3.org/2000/svg">
<g id="Group 33">
<path id="Vector" d="M12.9725 10.9508C14.0684 11.1347 15.2762 10.9428 16.1241 10.3748C17.252 9.62292 17.252 8.39108 16.1241 7.63917C15.2682 7.07124 14.0444 6.87927 12.9485 7.07124M4.9975 10.9508C3.90164 11.1347 2.69379 10.9428 1.84589 10.3748C0.718035 9.62292 0.718035 8.39108 1.84589 7.63917C2.70179 7.07124 3.92563 6.87927 5.0215 7.07124M13.7964 5.12748C13.7461 5.11948 13.6948 5.11948 13.6444 5.12748C13.1106 5.10818 12.6052 4.88208 12.235 4.49697C11.8648 4.11186 11.6589 3.59792 11.6607 3.06374C11.6607 1.91988 12.5806 1 13.7244 1C14.2717 1 14.7967 1.21743 15.1837 1.60446C15.5707 1.99148 15.7882 2.5164 15.7882 3.06374C15.7867 3.59829 15.5786 4.11158 15.2074 4.49621C14.8361 4.88085 14.3306 5.10705 13.7964 5.12748ZM4.1736 5.12748C4.2216 5.11948 4.27759 5.11948 4.32558 5.12748C4.85941 5.10818 5.36482 4.88208 5.735 4.49697C6.10519 4.11186 6.31114 3.59792 6.30934 3.06374C6.30934 1.91988 5.38945 1 4.24559 1C3.69826 1 3.17333 1.21743 2.78631 1.60446C2.39928 1.99148 2.18185 2.5164 2.18185 3.06374C2.18985 4.1836 3.06974 5.08749 4.1736 5.12748ZM8.997 11.1027C8.94666 11.0947 8.89536 11.0947 8.84502 11.1027C8.31119 11.0834 7.80578 10.8573 7.4356 10.4722C7.06542 10.0871 6.85946 9.57317 6.86127 9.039C6.86127 7.89514 7.78115 6.97525 8.92501 6.97525C9.47235 6.97525 9.99727 7.19268 10.3843 7.57971C10.7713 7.96674 10.9888 8.49166 10.9888 9.039C10.9808 10.1589 10.1009 11.0707 8.997 11.1027ZM6.66929 13.6224C5.54143 14.3743 5.54143 15.6062 6.66929 16.3581C7.94913 17.214 10.0449 17.214 11.3247 16.3581C12.4526 15.6062 12.4526 14.3743 11.3247 13.6224C10.0529 12.7745 7.94913 12.7745 6.66929 13.6224Z" stroke="white" stroke-linecap="round" stroke-linejoin="round"/>
</g>
</svg>
