<svg width="15" height="14" viewBox="0 0 15 14" fill="none" xmlns="http://www.w3.org/2000/svg">
<g id="Group 3">
<path id="Vector" d="M3.49956 6.88843C1.68208 6.88843 0.207031 8.3569 0.207031 10.181C0.207031 12.005 1.68208 13.4735 3.49956 13.4735C5.31704 13.4735 6.79209 11.9984 6.79209 10.181C6.79209 8.36348 5.32362 6.88843 3.49956 6.88843ZM2.15621 8.8376H3.49956C3.61832 8.8376 3.73222 8.88478 3.81619 8.96876C3.90017 9.05273 3.94734 9.16663 3.94734 9.28539C3.94734 9.40415 3.90017 9.51804 3.81619 9.60202C3.73222 9.686 3.61832 9.73317 3.49956 9.73317H2.15621C2.03745 9.73317 1.92355 9.686 1.83958 9.60202C1.7556 9.51804 1.70842 9.40415 1.70842 9.28539C1.70842 9.16663 1.7556 9.05273 1.83958 8.96876C1.92355 8.88478 2.03745 8.8376 2.15621 8.8376ZM4.84291 11.5243H2.15621C2.03745 11.5243 1.92355 11.4771 1.83958 11.3932C1.7556 11.3092 1.70842 11.1953 1.70842 11.0765C1.70842 10.8329 1.91256 10.6287 2.15621 10.6287H4.8495C5.09973 10.6287 5.29728 10.8329 5.29728 11.0765C5.29728 11.3202 5.09314 11.5243 4.84291 11.5243Z" fill="#42A4FF"/>
<path id="Vector_2" d="M10.7428 0.303223H4.15776C2.18225 0.303223 0.865234 1.29098 0.865234 3.59575V5.66346C0.865234 6.14417 1.35911 6.44708 1.80031 6.25611C2.55834 5.92711 3.3953 5.82421 4.21044 5.95979C5.93573 6.24294 7.34493 7.60605 7.69394 9.31817C7.79271 9.81863 7.80588 10.3059 7.74003 10.7735C7.68735 11.162 8.00344 11.5044 8.39196 11.5044H10.7428C12.7183 11.5044 14.0353 10.5166 14.0353 8.21188V3.59575C14.0353 1.29098 12.7183 0.303223 10.7428 0.303223ZM11.0523 3.98427L8.9912 5.63053C8.55658 5.97954 8.00344 6.15075 7.45029 6.15075C6.89715 6.15075 6.33742 5.97954 5.90939 5.63053L3.84827 3.98427C3.74752 3.90064 3.68302 3.78127 3.6683 3.65116C3.65357 3.52105 3.68974 3.39029 3.76924 3.28625C3.94046 3.07553 4.24995 3.03602 4.46068 3.20723L6.5218 4.8535C7.02226 5.25519 7.87174 5.25519 8.3722 4.8535L10.4333 3.20723C10.644 3.03602 10.9601 3.06895 11.1248 3.28625C11.296 3.49698 11.263 3.81306 11.0523 3.98427Z" fill="#42A4FF"/>
</g>
</svg>
