<svg id="Layer_1" data-name="Layer 1" xmlns="http://www.w3.org/2000/svg" viewBox="0 0 51.73 42.12"><defs><style>.cls-1{fill:#fff;}.cls-2{fill:none;stroke:#fff;stroke-miterlimit:10;stroke-width:2px;}</style></defs><path class="cls-1" d="M44.25,29.35,27.37,42.12V31.78H15.89A15.89,15.89,0,0,1,15.89,0h20A15.86,15.86,0,0,1,50,23S46.8,28,44.25,29.35ZM15.89,4a11.89,11.89,0,0,0,0,23.78H31.37v6.3L42.07,26a11.89,11.89,0,0,0,1.79-1.36l.08-.07a11.76,11.76,0,0,0,3.79-8.68A11.91,11.91,0,0,0,35.84,4Z"/><line class="cls-2" x1="13.52" y1="12.73" x2="35.36" y2="12.73"/><line class="cls-2" x1="13.52" y1="20.06" x2="28.29" y2="20.06"/></svg>