<svg id="Layer_1" data-name="Layer 1" xmlns="http://www.w3.org/2000/svg" viewBox="0 0 21.3 19.04"><defs><style>.cls-1{fill:#71767b;}</style></defs><path class="cls-1" d="M17.37,9.35,10.5,16.21,5.09,10.8l0,0L3.72,9.34l-.6-.6a3.8,3.8,0,0,1,0-5.4,3.79,3.79,0,0,1,5.4,0l.6.6,1.41,1.41L12,3.94,10.54,2.52,10,1.92a5.83,5.83,0,1,0-8.24,8.24l.6.59,8,8,8.23-8.23Z"/><path class="cls-1" d="M19.6,1.7a5.84,5.84,0,0,0-8.24,0l-.82.82L9.13,3.94l1.41,1.41L12,3.94l.82-.82a3.83,3.83,0,0,1,5.41,5.41l-.82.82L10.5,16.21,5.09,10.8l0,0L3.72,9.34,2.26,10.8,10.5,19l9.1-9.1A5.84,5.84,0,0,0,19.6,1.7Z"/></svg>