<svg id="Layer_1" data-name="Layer 1" xmlns="http://www.w3.org/2000/svg" viewBox="0 0 46.82 53.01"><defs><style>.cls-1{fill:none;stroke:#676767;stroke-miterlimit:10;stroke-width:4px;}</style></defs><path class="cls-1" d="M44,27.28S28.49,18,24.68,3.53a1.73,1.73,0,0,0-1.22-1.26C20.67,1.51,13.32,1.06,19,20l.07.19h0a1.74,1.74,0,0,1-1.64,2.42L4.85,22.44A1.73,1.73,0,0,0,3.51,23c-1,1.14-2.67,3.71-.3,6.17a1.7,1.7,0,0,1,.26,1.92c-.86,1.75-2.08,5.1.08,6.8a1.76,1.76,0,0,1,.71,1.27C4.39,41,5,45.06,8.09,45.78A1.7,1.7,0,0,1,9.3,47.06C9.68,48.57,10.74,51,13.54,51H35.69a1.67,1.67,0,0,0,.9-.25,27.11,27.11,0,0,1,6.89-3.06A1.74,1.74,0,0,0,44.82,46V27.55Z"/></svg>